<mxfile host="app.diagrams.net" modified="2023-11-29T02:40:04.792Z" agent="Mozilla/5.0 (Windows NT 10.0; Win64; x64) AppleWebKit/537.36 (KHTML, like Gecko) Chrome/119.0.0.0 Safari/537.36" version="22.1.4" etag="lsnpWJn9XYKWMDsBjfn_" type="github">
  <diagram name="Page-1" id="bcqkYbYb8BMBKjMOCLIZ">
    <mxGraphModel>
      <root>
        <mxCell id="0" />
        <mxCell id="1" parent="0" />
      </root>
    </mxGraphModel>
  </diagram>
</mxfile>
